<svg xmlns="http://www.w3.org/2000/svg" width="1500" height="683" viewBox="0 0 1500 683" version="1.1"><path d="" stroke="none" fill="#000000" fill-rule="evenodd"/><path d="M 247.577 49.250 C 242.648 66.327, 233.190 88.594, 222.832 107.500 C 208.208 134.193, 193.940 155.529, 156.627 206.500 C 106.320 275.222, 90.026 300.021, 73.468 333.064 C 42.781 394.302, 37.056 447.188, 55.126 502.500 C 79.132 575.984, 143.475 629.451, 221.196 640.499 C 234.572 642.400, 260.843 642.400, 275.344 640.499 C 333.389 632.890, 385.523 599.981, 418.711 550 C 442.773 513.762, 455.156 465.306, 451.081 423.337 C 447.308 384.477, 433.158 346.620, 405.170 300.500 C 390.575 276.450, 376.666 256.357, 341.482 208.500 C 300.444 152.681, 282.520 125.235, 267.637 95.425 C 260.426 80.981, 254.308 66.146, 251.070 55.250 C 248.921 48.020, 248.259 46.883, 247.577 49.250 M 244.099 139.750 C 233.970 160.669, 212.589 193.642, 175.525 245.500 C 147.871 284.193, 133.313 305.752, 122.519 324 C 82.986 390.832, 73.787 443.281, 91.983 498.105 C 104.304 535.229, 130.590 568.310, 163.436 588.030 L 167.371 590.393 164.325 584.946 C 142.085 545.183, 130.185 511.475, 126.926 479 C 122.951 439.396, 135.287 402.272, 164.476 366 C 176.773 350.719, 188.076 339.104, 216.328 312.718 C 260.993 271.003, 273.746 254.946, 280.205 232.291 C 283.452 220.900, 283.212 204.768, 279.615 192.723 C 274.897 176.927, 260.187 151.200, 247.038 135.750 C 246.686 135.337, 245.364 137.137, 244.099 139.750 M 850 229.892 C 812.498 238.110, 780.759 268.080, 770.990 304.500 C 766.301 321.980, 767.486 349.024, 773.705 366.458 C 785.431 399.328, 815.210 424.784, 850.500 432.106 C 874.186 437.021, 904.791 432.295, 923.397 420.850 L 928.295 417.837 936.418 425.919 L 944.542 434 963.771 434 C 974.347 434, 983 433.657, 983 433.239 C 983 432.820, 975.625 425.112, 966.611 416.111 L 950.221 399.744 955.644 392.726 C 962.495 383.858, 970.412 367.878, 973.095 357.500 C 975.775 347.130, 976.751 325.985, 975.042 315.273 C 970.570 287.237, 955.159 263.059, 930.583 245.522 C 922.436 239.708, 909.259 233.526, 899.284 230.837 C 887.957 227.784, 861.899 227.284, 850 229.892 M 537 330.982 L 537 431.016 595.250 430.758 L 653.500 430.500 653.500 416 L 653.500 401.500 610.756 401.239 L 568.011 400.979 567.756 316.239 L 567.500 231.500 552.250 231.224 L 537 230.948 537 330.982 M 699 331 L 699 431.052 714.250 430.776 L 729.500 430.500 729.500 331 L 729.500 231.500 714.250 231.224 L 699 230.948 699 331 M 1019.424 232.337 C 1019.142 233.072, 1019.059 265.360, 1019.240 304.087 C 1019.608 383.002, 1019.238 378.769, 1027.178 395 C 1030.556 401.906, 1033.044 405.210, 1040.450 412.622 C 1048.235 420.414, 1050.944 422.406, 1059.032 426.294 C 1072.159 432.604, 1081.126 434.393, 1096.383 433.745 C 1117.192 432.861, 1130.938 426.926, 1145.591 412.500 C 1155.020 403.217, 1160.691 393.779, 1164.197 381.541 L 1166.500 373.500 1166.500 302.500 L 1166.500 231.500 1151.307 231.224 L 1136.113 230.949 1135.758 299.724 C 1135.443 360.791, 1135.213 369.148, 1133.707 374.280 C 1127.514 395.376, 1112.167 406.069, 1090 404.735 C 1070.421 403.556, 1057.947 393.480, 1052.283 374.267 C 1050.772 369.139, 1050.545 360.876, 1050.241 299.750 L 1049.898 231 1034.918 231 C 1023.336 231, 1019.821 231.303, 1019.424 232.337 M 1215 331 L 1215 431.052 1230.250 430.776 L 1245.500 430.500 1245.500 331 L 1245.500 231.500 1230.250 231.224 L 1215 230.948 1215 331 M 1299 331 L 1299 431 1322.300 431 C 1350.824 431, 1369.383 429.599, 1381.469 426.533 C 1408.780 419.605, 1434.013 397.980, 1445.050 372.042 C 1450.642 358.901, 1452.393 349.289, 1452.434 331.500 C 1452.472 315.134, 1451.662 309.106, 1447.796 297 C 1439.760 271.837, 1419.948 250.242, 1395.597 240.105 C 1379.058 233.219, 1361.204 231, 1322.355 231 L 1299 231 1299 331 M 855.589 258.582 C 833.143 263.598, 813.101 280.639, 804.367 302.134 C 798.927 315.524, 797.743 335.837, 801.546 350.568 C 807.546 373.814, 826.031 393.502, 849.500 401.643 C 856.732 404.152, 858.845 404.423, 871.500 404.459 C 886.081 404.502, 891.038 403.584, 902.328 398.753 L 907.156 396.687 895.578 385.078 C 889.210 378.694, 884 373.018, 884 372.465 C 884 371.913, 888.276 367.202, 893.503 361.997 L 903.005 352.534 915.878 365.378 L 928.751 378.223 931.938 373.591 C 945.164 354.367, 948.513 327.655, 940.565 304.798 C 933.642 284.892, 916.307 267.685, 896.118 260.681 C 888.689 258.103, 885.775 257.645, 875 257.364 C 866.305 257.137, 860.396 257.507, 855.589 258.582 M 1330 330.885 L 1330 401 1344.250 400.987 C 1371.988 400.961, 1386.183 395.895, 1401.539 380.539 C 1416.201 365.877, 1421.342 352.828, 1421.252 330.500 C 1421.166 309.156, 1415.454 294.445, 1401.998 280.917 C 1388.279 267.125, 1374 262.043, 1346.750 261.254 L 1330 260.769 1330 330.885 M 581.149 481.721 C 578.495 486.681, 529 593.458, 529 594.225 C 529 594.692, 533.091 594.946, 538.091 594.788 L 547.182 594.500 552.884 582 L 558.586 569.500 581.543 569.251 L 604.500 569.002 609.411 580.751 C 612.112 587.213, 614.754 593.063, 615.283 593.750 C 616.209 594.954, 634 595.671, 634 594.505 C 634 593.899, 585.508 485.847, 583.612 482.229 C 582.281 479.688, 582.242 479.680, 581.149 481.721 M 665.242 537.250 L 665.500 594.500 674 594.500 L 682.500 594.500 683 557.985 L 683.500 521.470 721.500 561.193 C 742.400 583.040, 759.841 600.934, 760.258 600.958 C 760.675 600.981, 760.900 575.237, 760.758 543.750 L 760.500 486.500 752 486.500 L 743.500 486.500 743 522.776 L 742.500 559.053 704.695 519.526 C 683.902 497.787, 666.461 480, 665.937 480 C 665.341 480, 665.080 501.452, 665.242 537.250 M 842.696 487.095 C 840.829 491.168, 828.883 516.855, 816.150 544.178 C 803.418 571.501, 793 594.130, 793 594.465 C 793 594.801, 797.128 594.946, 802.173 594.788 L 811.347 594.500 817.081 582 L 822.815 569.500 845.658 569.232 L 868.501 568.964 874.001 581.732 L 879.500 594.500 888.877 594.789 C 897.484 595.055, 898.211 594.932, 897.738 593.289 C 896.905 590.402, 847.843 481.589, 846.926 480.595 C 846.458 480.088, 844.598 482.946, 842.696 487.095 M 1308 484.586 C 1292.476 487.174, 1283.454 491.526, 1273.990 500.990 C 1241.078 533.901, 1258.766 588.605, 1304.726 596.052 C 1315.809 597.847, 1331.417 595.165, 1339.750 590.031 L 1343 588.029 1343 578.515 C 1343 573.133, 1342.585 569, 1342.044 569 C 1341.519 569, 1338.550 570.778, 1335.447 572.952 C 1327.214 578.719, 1321.543 580.320, 1311.140 579.814 C 1300.309 579.287, 1293.117 576.213, 1285.952 569.048 C 1279.972 563.067, 1276.345 555.726, 1275.187 547.256 C 1273.354 533.859, 1277.058 522.048, 1286.084 512.505 C 1293.352 504.819, 1300.141 501.752, 1311 501.248 C 1320.945 500.786, 1327.704 502.705, 1336.352 508.446 C 1339.297 510.401, 1341.998 512, 1342.354 512 C 1342.709 512, 1343 507.718, 1343 502.485 L 1343 492.971 1339.750 490.969 C 1332.764 486.665, 1315.882 483.271, 1308 484.586 M 1405.920 484.957 C 1391.190 487.622, 1380.746 499.457, 1380.753 513.476 C 1380.761 527.123, 1388.085 534.977, 1408.724 543.468 C 1423.771 549.659, 1428.709 555.265, 1427.766 565.086 C 1426.899 574.106, 1420.373 580, 1411.253 580 C 1402.061 580, 1396.324 575.723, 1394.485 567.500 C 1392.785 559.896, 1393.474 560.186, 1382.836 562.605 L 1375.778 564.211 1376.436 568.355 C 1377.996 578.181, 1385.339 588.592, 1393.709 592.843 C 1412.055 602.161, 1436.072 593.629, 1443.005 575.330 C 1445.949 567.561, 1446.076 556.214, 1443.290 549.942 C 1439.076 540.457, 1432.484 535.174, 1416.516 528.484 C 1404.074 523.271, 1401.353 521.584, 1399.449 517.901 C 1397.474 514.083, 1397.634 511.112, 1400.026 507.190 C 1405.325 498.498, 1421.307 498.939, 1426.614 507.923 C 1427.613 509.616, 1428.752 511, 1429.144 511 C 1430.893 511, 1442 503.633, 1442 502.473 C 1442 501.762, 1440.219 498.927, 1438.043 496.174 C 1431.050 487.326, 1418.003 482.771, 1405.920 484.957 M 930 540.460 L 930 595 954 595 L 978 595 978 586.500 L 978 578 962.510 578 L 947.020 578 946.760 532.250 L 946.500 486.500 938.250 486.210 L 930 485.919 930 540.460 M 989.755 486.579 C 989.437 486.897, 996.899 500.509, 1006.338 516.829 L 1023.500 546.500 1024 570.500 L 1024.500 594.500 1032.750 594.790 L 1041 595.081 1041 571.935 L 1041 548.790 1058.500 518.458 C 1068.125 501.775, 1076 487.647, 1076 487.063 C 1076 485.848, 1059.160 485.579, 1057.426 486.765 C 1056.835 487.169, 1051.210 496.599, 1044.926 507.720 C 1038.642 518.841, 1033.256 527.953, 1032.958 527.970 C 1032.660 527.986, 1027.748 519.788, 1022.043 509.750 C 1007.165 483.574, 1009.509 486, 999.099 486 C 994.278 486, 990.073 486.260, 989.755 486.579 M 1103 494.486 L 1103 503 1114.990 503 L 1126.980 503 1127.240 548.750 L 1127.500 594.500 1136 594.500 L 1144.500 594.500 1144.500 548.750 L 1144.500 503 1156.790 503 L 1169.081 503 1168.790 494.750 L 1168.500 486.500 1135.750 486.236 L 1103 485.973 1103 494.486 M 1201.474 487.209 C 1201.202 487.919, 1201.097 512.350, 1201.240 541.500 L 1201.500 594.500 1210 594.500 L 1218.500 594.500 1218.500 540.500 L 1218.500 486.500 1210.234 486.209 C 1204.187 485.997, 1201.836 486.265, 1201.474 487.209 M 845.151 520.023 C 844.617 521.385, 841.208 528.981, 837.576 536.903 C 833.944 544.825, 831.141 551.475, 831.347 551.681 C 831.553 551.887, 838.280 551.930, 846.296 551.778 L 860.870 551.500 853.497 534.523 C 846.896 519.325, 846.021 517.806, 845.151 520.023 M 574.222 534.854 C 570.250 543.573, 567 550.998, 567 551.354 C 567 551.709, 573.714 552, 581.921 552 L 596.841 552 589.702 535.500 C 585.775 526.425, 582.310 519, 582.002 519 C 581.695 519, 578.193 526.134, 574.222 534.854" stroke="none" fill="#fffcfc" fill-rule="evenodd"/><path d="" stroke="none" fill="#fcfcfc" fill-rule="evenodd"/></svg>
